<?xml version="1.0" standalone="no"?>
<!DOCTYPE svg PUBLIC "-//W3C//DTD SVG 20010904//EN"
 "http://www.w3.org/TR/2001/REC-SVG-20010904/DTD/svg10.dtd">
<svg version="1.0" xmlns="http://www.w3.org/2000/svg"
 width="700.000000pt" height="700.000000pt" viewBox="0 0 700.000000 700.000000"
 preserveAspectRatio="xMidYMid meet">
<metadata>
Created by potrace 1.11, written by Peter Selinger 2001-2013
</metadata>
<g transform="translate(0.000000,700.000000) scale(0.100000,-0.100000)"
fill="#000000" stroke="none">
<path d="M2918 6988 c-2 -7 -3 -73 -3 -145 l1 -133 -1166 0 -1167 0 1 -582 1
-583 290 0 290 0 2 285 c1 157 2 287 2 290 2 11 1741 6 1743 -5 0 -5 2 -66 3
-135 2 -69 3 -130 4 -136 1 -8 251 -11 874 -11 l873 1 1 135 c1 75 2 141 2
146 1 7 280 11 874 10 l872 0 1 -1747 c0 -1580 -1 -1748 -15 -1749 -9 -1 -140
-2 -291 -3 l-275 -1 -1 -291 0 -291 583 0 583 0 0 2333 0 2334 -1164 0 c-922
0 -1165 3 -1168 13 -2 6 -3 72 -3 145 l1 132 -872 0 c-689 0 -873 -3 -876 -12z"/>
<path d="M1758 5245 c-2 -1 -25 -6 -53 -9 -27 -4 -57 -9 -65 -11 -8 -2 -29 -7
-46 -10 -107 -18 -309 -107 -441 -196 -68 -46 -243 -209 -297 -278 -117 -150
-218 -380 -253 -576 -16 -91 -22 -316 -11 -390 44 -279 142 -496 312 -695 31
-36 56 -67 56 -70 0 -3 -24 -16 -52 -30 -185 -88 -391 -247 -531 -411 -60 -69
-161 -226 -205 -316 -53 -108 -107 -266 -127 -368 -3 -16 -13 -64 -22 -105
-13 -64 -16 -200 -20 -927 l-4 -853 1895 0 1895 0 3 773 c3 867 -3 801 80 872
24 20 133 93 242 163 351 223 520 355 756 592 250 251 411 447 621 760 133
198 409 655 409 678 0 4 -110 117 -245 252 -135 135 -245 250 -245 257 0 6 4
13 8 15 17 7 246 276 354 414 6 8 -27 37 -102 90 -60 44 -167 120 -237 171
l-127 92 -21 -26 c-484 -625 -1170 -1193 -1830 -1514 -126 -61 -327 -149 -341
-149 -1 0 7 26 18 58 11 31 22 64 24 72 2 8 10 42 18 75 25 105 29 137 31 277
3 212 -34 385 -124 574 -93 196 -212 344 -387 483 -135 107 -349 207 -515 240
-30 6 -67 13 -84 17 -31 6 -331 15 -337 9z m287 -593 c164 -34 328 -138 430
-274 272 -362 159 -871 -240 -1084 -113 -61 -217 -84 -360 -80 -201 5 -344 66
-486 206 -77 76 -121 139 -157 220 -37 85 -42 102 -48 138 -3 21 -7 44 -10 52
-3 7 -5 55 -5 106 0 257 123 479 342 620 70 45 189 90 264 101 22 3 41 6 43 7
6 7 183 -3 227 -12z m3035 -811 c50 -48 90 -93 90 -98 0 -29 -313 -479 -443
-638 -148 -179 -384 -420 -503 -511 -11 -7 -53 -40 -94 -72 -79 -61 -195 -139
-400 -267 -310 -195 -427 -327 -493 -559 -19 -66 -21 -104 -24 -586 -2 -283
-8 -517 -13 -520 -4 -3 -595 -5 -1312 -5 l-1303 0 1 515 c1 552 4 602 56 760
85 261 264 466 517 595 134 67 357 136 489 151 29 3 63 7 75 10 12 2 103 6
202 9 173 5 244 9 365 21 90 8 134 14 150 19 8 2 36 6 63 10 208 26 588 129
847 230 181 71 455 200 600 283 292 167 614 389 855 591 50 41 92 77 95 80 12
14 81 71 86 71 2 0 45 -40 94 -89z"/>
</g>
</svg>
